<?xml version="1.0" encoding="UTF-8"?>
<svg version="1.1" xmlns="http://www.w3.org/2000/svg" width="50" height="50">
<path d="M0 0 C-0.33 0.99 -0.66 1.98 -1 3 C-2.85546875 3.8515625 -2.85546875 3.8515625 -5.1875 4.625 C-10.82746677 7.01390312 -13.58319856 10.42087533 -16 16 C-16.98911179 19.98033877 -17.59965354 23.92060764 -18 28 C-14.7 28 -11.4 28 -8 28 C-12.93532733 35.66274506 -18.39034125 42.82717547 -24 50 C-27.31034183 48.89655272 -27.81503534 48.28130547 -29.8125 45.578125 C-30.33070312 44.88203125 -30.84890625 44.1859375 -31.3828125 43.46875 C-31.91648437 42.7365625 -32.45015625 42.004375 -33 41.25 C-33.53367187 40.53328125 -34.06734375 39.8165625 -34.6171875 39.078125 C-37.27313394 35.48400843 -39.79255461 31.89368839 -42 28 C-38.37 28 -34.74 28 -31 28 C-31.0825 26.865625 -31.165 25.73125 -31.25 24.5625 C-31.21383373 17.73912969 -28.40406421 12.19837955 -23.875 7.1875 C-16.93741285 0.82681242 -9.1653345 -0.70202562 0 0 Z " fill="#916840" transform="translate(45,0)"/>
</svg>
